<?xml version="1.0" encoding="UTF-8" standalone="no"?>
<!-- Created with Inkscape (http://www.inkscape.org/) -->

<svg
   version="1.1"
   id="svg1"
   width="328"
   height="141"
   viewBox="0 0 328 141"
   sodipodi:docname="wrensch.svg"
   inkscape:version="1.3.2 (091e20e, 2023-11-25, custom)"
   xmlns:inkscape="http://www.inkscape.org/namespaces/inkscape"
   xmlns:sodipodi="http://sodipodi.sourceforge.net/DTD/sodipodi-0.dtd"
   xmlns="http://www.w3.org/2000/svg"
   xmlns:svg="http://www.w3.org/2000/svg">
  <defs
     id="defs1">
    <linearGradient
       id="swatch93">
      <stop
         style="stop-color:#000000;stop-opacity:1;"
         offset="0"
         id="stop93" />
    </linearGradient>
  </defs>
  <sodipodi:namedview
     id="namedview1"
     pagecolor="#ffffff"
     bordercolor="#000000"
     borderopacity="0.25"
     inkscape:showpageshadow="2"
     inkscape:pageopacity="0.0"
     inkscape:pagecheckerboard="0"
     inkscape:deskcolor="#d1d1d1"
     showgrid="false"
     inkscape:zoom="2"
     inkscape:cx="80.75"
     inkscape:cy="60.25"
     inkscape:window-width="1920"
     inkscape:window-height="1017"
     inkscape:window-x="-8"
     inkscape:window-y="-8"
     inkscape:window-maximized="1"
     inkscape:current-layer="g1"
     showguides="false" />
  <g
     inkscape:groupmode="layer"
     inkscape:label="Image"
     id="g1">
    <path
       style="fill:#f2e328;fill-opacity:1;stroke:#000000;stroke-width:0;stroke-dasharray:none;stroke-opacity:1"
       d="m 110.902,35.527139 c -7.4e-4,-0.02288 -2.65898,-0.01395 -2.65898,-0.01395 -0.0162,-0.660687 -0.0381,-2.594434 -0.0381,-2.594434 l 2.61221,-0.01793 c 0.0276,-1.89e-4 -0.0823,-2.806338 -0.0788,-3.56332 0.004,-0.976658 0.0242,-2.15934 0.0255,-2.700219 4e-5,-0.01824 -6.33122,-0.134282 -6.33062,-0.0064 0.0142,3.006489 0.0123,1.932495 0.0144,3.10652 0,0 -1.50897,-0.05672 -2.47089,-0.04821 l -0.061,-3.077288 -2.727699,-0.07183 c -0.02071,-1.939369 -0.02812,-2.584299 -0.02812,-2.584299 l 2.720649,-0.04536 c 0.0142,-2.37e-4 -0.0446,-2.659161 -0.0461,-2.984243 1.05663,0.01881 2.55224,-0.01175 2.55224,-0.01175 -0.0152,1.019242 0.0105,2.895215 0.0114,2.89522 l 6.36645,0.03365 c 0.10803,-3.520829 0.0679,-2.632939 0.16627,-6.611017 l -2.62049,-0.0448 c 0,0 0.034,-1.89053 0.047,-3.288383 0.001,-0.112397 2.78922,-0.14212 2.78922,-0.14212 -0.006,-0.746043 -10e-4,-1.792029 -10e-4,-1.792029 1.37871,-0.02278 1.94746,-0.03102 2.92702,-0.03672 0.005,0.588675 0.01,1.177336 0.0152,1.765989 0,0 2.8511,0.01977 2.85098,0.0303 -0.002,0.183567 0.0515,3.311558 0.0515,3.311558 -2.33215,0.0394 -2.73021,0.02759 -2.73021,0.02759 -0.0179,4.43593 -0.0142,4.829136 0.003,6.486954 0,0 4.27247,0.01271 6.01763,-0.02187 0.0944,-0.0019 0.0273,-1.609717 0.0213,-2.719138 l 2.83591,-0.0398 c 0.0278,0.927552 0.0394,1.587433 0.0767,2.741644 0.85418,0.04741 2.32472,0.06001 2.88425,0.07636 0.0137,0.979438 0.0396,2.04915 0.0604,3.047772 -0.89978,0.04261 -2.48527,0.0048 -2.84735,0.03323 8.5e-4,0.349346 0.004,1.846824 -0.003,2.522007 -0.50762,0.0083 -2.96902,0.02762 -2.96933,0.0042 l -0.0339,-2.567797 -6.14868,-0.01556 c 0.004,1.1e-5 0.0385,3.880976 0.083,6.028177 0,0 0.86586,0.02465 2.3236,0.0095 0,0 0.003,0.0024 0.11174,2.846448 -2.15015,0.04833 -0.35541,-0.02472 -2.72989,-0.0027 6.4e-4,0.233255 -0.12518,2.42161 -0.1002,3.365181 0.003,0.101255 -2.29588,-0.01959 -2.86407,-0.0577 -0.003,-1.088301 -0.0556,-2.551875 -0.0789,-3.273433 z"
       id="path91" />
    <path
       style="fill:#ff0000;fill-opacity:1;stroke:#000000;stroke-width:0;stroke-dasharray:none;stroke-opacity:1"
       d="m 21.814739,10.653239 c 0,0 10.963873,0.06735 15.487442,-0.164028 5.712041,14.629938 11.711293,29.14235 17.72939,43.648081 C 52.068825,57.878159 45.717202,65.7227 45.717202,65.7227 41.000417,54.914374 29.443836,28.731796 21.814739,10.653239 Z"
       id="path90" />
    <path
       style="fill:#0e0e0e;fill-opacity:1;stroke:#000000;stroke-width:0;stroke-dasharray:none;stroke-opacity:1"
       d="m 298.65881,67.514403 -0.11859,-34.28981 3.49706,-0.12149 0.0173,11.184693 c 0,0 1.34205,-2.183101 5.41232,-2.784848 0.50316,-0.07439 4.27915,-0.480772 7.90572,0.914033 4.33383,1.666823 5.30341,5.545953 5.30341,5.545953 0.0607,0.04661 0.7771,1.921743 0.76915,19.932378 l -3.03893,0.01094 c 0,0 0.0276,-2.479603 0.0938,-10.8099 0.0398,-5.010125 -0.70834,-9.204389 -0.70834,-9.204389 -1.26981,-3.72867 -4.6479,-4.440662 -8.74306,-4.026795 -2.39585,0.242131 -6.62348,1.43849 -6.69501,4.164336 -0.15341,5.846006 -0.12137,13.607745 -0.0636,19.574296 z"
       id="path89"
       sodipodi:nodetypes="ccccsscccsssscc" />
    <path
       style="fill:#0e0e0e;fill-opacity:1;stroke:#000000;stroke-width:0;stroke-dasharray:none;stroke-opacity:1"
       d="m 219.80113,41.808264 3.08389,-0.02695 0.0295,3.480956 c 0.004,0.472405 1.01327,-1.048849 2.62322,-2.177203 1.54543,-1.083139 4.13071,-1.678587 5.31631,-1.728323 4.76818,-0.200024 7.25996,1.250199 9.69986,3.89207 1.98757,2.152103 2.00788,4.368396 2.03142,4.338618 0,0 0.22484,18.145074 0.17859,18.22261 l -3.87252,-0.0049 -0.22851,-16.713482 c -0.0707,-5.170142 -2.59466,-6.899116 -6.93864,-7.025447 -6.13174,-0.178324 -8.74058,3.994233 -8.62864,10.159335 0.0698,3.842479 -0.27926,13.341645 -0.27926,13.341645 l -3.01672,0.22666 z"
       id="path88" />
    <path
       style="fill:#0e0e0e;fill-opacity:1;stroke:#000000;stroke-width:0;stroke-dasharray:none;stroke-opacity:1"
       d="m 174.19308,43.184693 3.11079,0.22319 0.15363,2.631527 c 0.92756,-1.164205 6.47933,-4.796381 7.54429,-4.722007 l 0.11302,4.489355 c 0,0 -4.15547,-1.171831 -6.38345,3.935309 -0.68407,1.568084 -0.51618,9.602985 -0.51618,9.602985 l 0.0111,8.419377 -3.92054,-0.09565 z"
       id="path87" />
    <path
       style="fill:#0e0e0e;fill-opacity:1;stroke:#000000;stroke-width:0;stroke-dasharray:none;stroke-opacity:1"
       d="m 272.98983,67.75 c -14.21722,-10.719663 -3.80468,-32.055738 13.34712,-25.811992 5.40357,1.967054 8.02393,8.242861 8.0166,8.243716 l -3.86196,-0.03296 c 0,0 -0.68533,-1.510545 -1.93407,-2.95972 0,0 -1.94996,-2.09111 -4.87585,-2.950443 -8.19598,-2.407154 -13.86501,3.749369 -14.37104,9.899065 -0.22375,2.719191 1.24915,8.272021 5.08025,10.597184 2.12598,1.290301 6.5596,1.92347 9.14373,1.237517 6.23453,-1.654949 6.48546,-5.301496 6.49715,-5.276892 l 3.87449,0.096 c 0,0 -1.14428,4.637503 -5.43789,6.915161 -4.45362,2.362541 -11.50186,2.549736 -14.77142,0.308527 z"
       id="path86" />
    <path
       style="fill:#0e0e0e;fill-opacity:1;stroke:#000000;stroke-width:0;stroke-dasharray:none;stroke-opacity:1"
       d="m 250.536,61.259977 0.214,1.736089 c 0.21455,1.740574 3.86753,3.260099 6.28777,2.491945 2.41238,-0.765658 3.5141,-3.28818 2.3945,-5.325165 -0.74127,-1.348669 -2.34246,-3.078699 -4.32953,-3.930456 -2.7978,-1.199277 -5.36513,-2.39306 -6.48022,-4.126642 -3.7447,-5.821752 1.84819,-13.416158 9.79412,-10.793926 4.05002,1.336546 3.63688,4.009535 3.95979,6.93986 l -3.35495,0.210609 c -0.004,-0.0068 -0.002,-2.615299 -0.32377,-2.996148 -2.30388,-2.723274 -6.76054,-0.885822 -7.38822,0.812759 -0.86731,2.347059 0.18402,5.03511 3.88657,6.42366 4.85344,1.820164 8.10878,3.305226 8.22405,8.813619 0.0337,1.612631 0.46204,2.431387 -1.02935,4.715272 -1.08593,1.662985 -3.7158,2.880048 -6.05499,2.97996 -3.36528,0.143738 -5.60897,-1.215141 -6.84238,-2.544649 -0.0311,-0.03354 -0.89273,-0.968902 -1.52379,-2.199258 -0.69148,-1.348163 -1.00162,-3.08873 -1.00162,-3.08873 z"
       id="path85"
       sodipodi:nodetypes="csssssscccssssssscc" />
    <path
       id="path83"
       style="fill:#000000;fill-opacity:1;stroke:#000000;stroke-width:0;stroke-dasharray:none;stroke-opacity:1"
       d="m 195.05336,67.377307 c -1.31363,-0.885521 -2.55764,-1.446531 -3.58015,-2.535831 -4.11617,-4.385045 -5.59327,-10.678865 -2.80325,-16.558407 2.48437,-5.235421 7.62886,-7.606381 12.76342,-7.331178 5.41502,0.290235 10.81899,3.523603 13.08003,9.444051 1.12223,2.938518 0.50019,5.869252 0.50019,5.869252 l -24.06802,-0.108872 c 0,0 0.45565,4.152355 1.95749,5.790174 1.9348,2.109973 3.96645,4.005846 7.69744,4.254515 1.54422,0.102922 4.90254,-1.43e-4 6.53036,-1.668888 1.57817,-1.589908 2.40963,-1.804066 3.117,-3.92805 l 3.66843,-0.12958 c 0,0 -0.34002,1.415472 -1.76418,3.157865 -0.80098,0.979961 -1.03966,1.154534 -2.05511,2.295593 -0.84371,0.948075 -2.64579,1.70689 -4.35532,2.410794 -2.87728,1.184731 -7.61655,1.109256 -10.68833,-0.961438 z m 16.29087,-13.923393 c 0.13583,0.001 -0.331,-8.885529 -9.92707,-9.23577 -3.76917,-0.137569 -8.98898,0.679333 -10.4105,8.764034 z"
       sodipodi:nodetypes="sssssccsscccsssscscc" />
    <path
       style="fill:#0e0e0e;fill-opacity:1;stroke:#000000;stroke-width:0;stroke-dasharray:none;stroke-opacity:1"
       d="m 1.9964922,10.839462 13.9512858,-0.0356 27.869741,67.513255 43.590842,-53.371526 c 6.26228,6.966659 25.859609,30.077073 25.805829,30.229646 -1.71371,4.861956 -6.29262,14.696986 -6.29262,14.696986 C 98.009846,59.221053 88.016099,47.403944 88.016099,47.403944 68.8011,71.032691 39.624278,105.78292 39.624278,105.78292 Z"
       id="path82" />
    <path
       style="fill:#0e0e0e;fill-opacity:1;stroke:#000000;stroke-width:0;stroke-dasharray:none;stroke-opacity:1"
       d="m 126.91136,93.561223 c 0,0 24.73096,-62.416439 33.76933,-82.474435 0,0 14.41401,-0.563436 14.30232,-0.378852 -0.2303,-0.0693 -38.52163,95.911484 -38.52163,95.911484 z"
       id="path81" />
    <path
       style="fill:#ff0000;fill-opacity:1;stroke:#000000;stroke-width:0;stroke-dasharray:none;stroke-opacity:1"
       d="M 57.176405,94.997207 87.320817,57.583856 c 0.138128,0.124835 21.479523,25.419357 21.479523,25.419357 l 29.94109,-72.067517 14.4341,0.09927 c 0,0 -12.03285,23.280569 -40.67413,98.899724 L 87.766895,80.472284 c 0,0 -17.23051,19.544176 -24.863856,28.232256 z"
       id="path80" />
    <path
       style="fill:#f2e328;fill-opacity:1;stroke:#000000;stroke-width:0;stroke-dasharray:none;stroke-opacity:1"
       d="m 60.742049,35.598912 c -7.4e-4,-0.02288 -2.65898,-0.01395 -2.65898,-0.01395 -0.0162,-0.660687 -0.0381,-2.594434 -0.0381,-2.594434 l 2.61221,-0.01793 c 0,0 -0.04208,-6.26883 -0.0533,-6.263539 0,0 -6.33122,-0.134282 -6.33062,-0.0064 0.0142,3.006489 0.0123,1.932495 0.0144,3.10652 0,0 -1.508975,-0.05672 -2.470891,-0.04821 l -0.06095,-3.077288 -2.727698,-0.07183 C 49.00741,24.672482 49,24.027552 49,24.027552 l 2.720647,-0.04536 c 0.01421,-2.37e-4 -0.04462,-2.659161 -0.04608,-2.984243 1.056632,0.01881 2.552242,-0.01175 2.552242,-0.01175 -0.0152,1.019242 0.0105,2.895215 0.0114,2.89522 l 6.36645,0.03365 c 0.10803,-3.520829 0.0679,-2.632939 0.16627,-6.611017 l -2.62049,-0.0448 c 0,0 0.034,-1.89053 0.047,-3.288383 10e-4,-0.112397 2.78922,-0.14212 2.78922,-0.14212 -0.006,-0.746043 -0.001,-1.792029 -0.001,-1.792029 1.37871,-0.02278 1.94746,-0.03102 2.92702,-0.03672 0.005,0.588675 0.01,1.177336 0.0152,1.765989 0,0 2.8511,0.01977 2.85098,0.0303 -0.002,0.183567 0.0515,3.311558 0.0515,3.311558 -2.33215,0.0394 -2.73021,0.02759 -2.73021,0.02759 -0.0179,4.43593 -0.0142,4.829136 0.003,6.486954 0,0 4.27247,0.01271 6.01763,-0.02187 0.0944,-0.0019 0.0273,-1.609717 0.0213,-2.719138 l 2.83591,-0.0398 c 0.0278,0.927552 0.0394,1.587433 0.0767,2.741644 0.85418,0.04741 2.32472,0.06001 2.88425,0.07636 0.0137,0.979438 0.0396,2.04915 0.0604,3.047772 -0.89978,0.04261 -2.48527,0.0048 -2.84735,0.03323 8.5e-4,0.349346 0.004,1.846824 -0.003,2.522007 -0.50762,0.0083 -2.96902,0.02762 -2.96933,0.0042 l -0.0339,-2.567797 -6.14868,-0.01556 c 0.004,1.1e-5 0.0385,3.880976 0.083,6.028177 0,0 0.86586,0.02465 2.3236,0.0095 0,0 0.003,0.0024 0.11174,2.846448 -2.15015,0.04833 -0.35541,-0.02472 -2.72989,-0.0027 6.4e-4,0.233255 -0.12518,2.42161 -0.1002,3.365181 0.003,0.101255 -2.29588,-0.01959 -2.86407,-0.0577 -0.003,-1.088301 -0.0556,-2.551875 -0.0789,-3.273433 z"
       id="path79" />
    <path
       style="fill:#f2e328;fill-opacity:1;stroke:#000000;stroke-width:0;stroke-dasharray:none;stroke-opacity:1"
       d="m 85.742049,113.59891 c -7.4e-4,-0.0229 -2.65898,-0.014 -2.65898,-0.014 -0.0162,-0.66069 -0.0381,-2.59443 -0.0381,-2.59443 l 2.61221,-0.0179 c 0.0276,-1.9e-4 -0.0823,-2.80634 -0.0788,-3.56332 0.004,-0.97666 0.0242,-2.15934 0.0255,-2.70022 4e-5,-0.0182 -6.33122,-0.13428 -6.33062,-0.006 0.0142,3.00649 0.0123,1.93249 0.0144,3.10652 0,0 -1.508975,-0.0567 -2.470891,-0.0482 l -0.06095,-3.07729 -2.727698,-0.0718 C 74.00741,102.67248 74,102.02755 74,102.02755 l 2.720647,-0.0454 c 0.01421,-2.3e-4 -0.04462,-2.659159 -0.04608,-2.984241 1.056632,0.01881 2.552242,-0.01175 2.552242,-0.01175 -0.0152,1.019241 0.0105,2.895211 0.0114,2.895221 l 6.36645,0.0336 c 0.10803,-3.52083 0.0679,-2.63294 0.16627,-6.611018 l -2.62049,-0.0448 c 0,0 0.034,-1.89053 0.047,-3.288383 10e-4,-0.112397 2.78922,-0.14212 2.78922,-0.14212 -0.006,-0.746043 -0.001,-1.792029 -0.001,-1.792029 1.37871,-0.02278 1.94746,-0.03102 2.92702,-0.03672 0.005,0.588675 0.01,1.177336 0.0152,1.765989 0,0 2.8511,0.01977 2.85098,0.0303 -0.002,0.183567 0.0515,3.311558 0.0515,3.311558 -2.33215,0.0394 -2.73021,0.02759 -2.73021,0.02759 -0.0179,4.43593 -0.0142,4.829136 0.003,6.486953 0,0 4.27247,0.0127 6.01763,-0.0219 0.0944,-0.002 0.0273,-1.609716 0.0213,-2.719137 l 2.83591,-0.0398 c 0.0278,0.927552 0.0394,1.587437 0.0767,2.741647 0.85418,0.0474 2.324721,0.06 2.884251,0.0764 0.0137,0.97944 0.0396,2.04915 0.0604,3.04777 -0.89978,0.0426 -2.485271,0.005 -2.847351,0.0332 8.5e-4,0.34934 0.004,1.84682 -0.003,2.52201 -0.50762,0.008 -2.96902,0.0276 -2.96933,0.004 l -0.0339,-2.5678 -6.14868,-0.0156 c 0.004,10e-6 0.0385,3.88097 0.083,6.02818 0,0 0.86586,0.0247 2.3236,0.01 0,0 0.003,0.002 0.11174,2.84644 -2.15015,0.0483 -0.35541,-0.0247 -2.72989,-0.003 6.4e-4,0.23326 -0.12518,2.42161 -0.1002,3.36519 0.003,0.10125 -2.29588,-0.0196 -2.86407,-0.0577 -0.003,-1.0883 -0.0556,-2.55187 -0.0789,-3.27343 z"
       id="path1-1-8" />
    <text
       xml:space="preserve"
       style="font-style:normal;font-variant:normal;font-weight:normal;font-stretch:normal;font-family:'ITC Avant Garde';-inkscape-font-specification:'ITC Avant Garde';fill:#ff0000;fill-opacity:1;fill-rule:evenodd;stroke:#000000;stroke-width:0;stroke-dasharray:none;stroke-opacity:1"
       x="189"
       y="93"
       id="text94"><tspan
         sodipodi:role="line"
         id="tspan94"
         x="189"
         y="93" /></text>
  </g>
</svg>
